<svg xmlns="http://www.w3.org/2000/svg" viewBox="0 0 754.12 56.88"><defs><style>.cls-1{fill:#fff;fill-rule:evenodd}.cls-2{fill:#e0e0e0}</style></defs><g id="Слой_2" data-name="Слой 2"><g id="Слой_1-2" data-name="Слой 1"><path d="M235.44 29.13a2.76 2.76 0 0 0-2.4.66.1.1 0 0 0-.07.08s0 .08.1.14c1.53 1.6 2.93 1.54 4.07-.18a1.07 1.07 0 0 0-.23-.26c-.48-.12-1.09.02-1.47-.44ZM50.48 26.71c-.14 0-.32 0-.3.18s.11.42.39.4.35-.16.31-.32-.18-.26-.4-.26ZM128.56 39.09c0 .12.1.13.17.08s.08-.06.08-.08a2.06 2.06 0 0 0-.11-.18.79.79 0 0 1-.14.18ZM557.05 23.27a2.74 2.74 0 0 0-2.39.66.1.1 0 0 0-.08.08s0 .08.1.14c1.53 1.61 2.93 1.55 4.08-.18a1.07 1.07 0 0 0-.23-.26c-.53-.12-1.1.02-1.48-.44ZM.79 19.88A1.18 1.18 0 0 0 0 19.6V11a.53.53 0 0 0 .1.14.37.37 0 0 0 .54.1 1.13 1.13 0 0 1 1.68.26c.12.14.35.14.6.12.85 0 1 .46 1.05 1a3.13 3.13 0 0 1-.1.6C3.81 14 4 14.1 5 14a10.55 10.55 0 0 0 3.75-1.28 1.55 1.55 0 0 1 1-.3 1.65 1.65 0 0 0 1.66-.94c.18-.26.28-.6.71-.8.27 0 .2-.34.4-.42 1.23.1 2.44.26 3.24-.86a1.38 1.38 0 0 1 .36-.29A1.58 1.58 0 0 1 17.28 11a.92.92 0 0 0 0 .84c.07.14.12.27.19.4h-.07c-.12.08 0 .24.08.3-.08.36-.13.68-.2 1-.6.43-1.23.86-1.86 1.28a18.19 18.19 0 0 0-4.88 2.63 2 2 0 0 1-2.54.1 1.73 1.73 0 0 0-2 .08c-.42.26-.69.84-1.3.8a2.43 2.43 0 0 0-2.11 1.06 1.38 1.38 0 0 1-1.8.39Z" class="cls-1"/><path d="M754.12 11.09v45.79H0V26.22l7.41.94c1.31-.6 1.77-1.8 2.81-2.6a3.18 3.18 0 0 1 2.28-.81c.7.11.79.93.78 1.49 0 1 .67 1.1 1.67.82a10.38 10.38 0 0 0 1.53-.66c1.43-.74 1.43-1.6 0-2.42-1.16-.64-1.13-.93.22-1.44 1-.42 1.95-.52 2.72.39.48.54 3.37.79 3.87.28 1.07-1.08 2.74-1.52 4-2.32a4.18 4.18 0 0 1 2.45-.66c.24 0 .47 0 .7-.05a5 5 0 0 1 2 1.14 4.8 4.8 0 0 0 4 1.54h.16a5.17 5.17 0 0 0 2 0c.35.34.77.68 1 .68a2.5 2.5 0 0 0 1.72-.74c.12-.12.2-.31.32-.43a1.83 1.83 0 0 1 .26-.21 4.83 4.83 0 0 1 1 0 1.07 1.07 0 0 1 .72-.39 5 5 0 0 1 .55-.17 20.15 20.15 0 0 1 3.1-.18c.49 0 .91 0 1.15.44a.86.86 0 0 0 1.17.33c.8-.29 1.14.25 1.62.67A2.08 2.08 0 0 1 53.18 20c1.1-.19 1.37-.07 2 .86v.07a.69.69 0 0 0 .85.21c.32-.16.15-.38 0-.54-.77-.59-.32-1.08.23-1.47l.6-.46c1.07.14 1.31.45 1.57 1.58v.26a1.31 1.31 0 0 0 1.21 1 1.58 1.58 0 0 0 1.64-.43 1.31 1.31 0 0 1 .89-.69c.14 0 .27-.05.41-.06 1 .18 1.35.66.84 1.51-.12.17-.2.46-.39.56-1.08.42-1.75 1.28-2.88 1.66a5.16 5.16 0 0 1-2.23.41 1.75 1.75 0 0 0-1.93 1c-.1.36-.47.64-.75.93a.73.73 0 0 1-1 0c-.27-.19-.26-.72-.87-.51a4 4 0 0 0-1.12.43c-.36.22-.75.5-.51.95s.58.48 1.15.45c1.62 0 1.65.06 2.1 1.31.06.16.12.32.34.35a.6.6 0 0 0 .66-.23c.27-.3.52-.63.3-.95-.53-.71.27-.9.76-1.19a1.12 1.12 0 0 1 1.39.17c.51.53.88.41 1.41 0a1.58 1.58 0 0 1 1.34-.19c.66.13 0 .67.57.93 1-.8 2.69-.51 3.91-1.18a1.13 1.13 0 0 1 1.22.32c.39.42 0 .64-.36.8-.74.37-1.09.76-.72 1.47a.48.48 0 0 1-.3.72c-1.12.4-1.74 1.36-3 1.62-1.52.32-1.3 2.42-.35 3a5.81 5.81 0 0 0 2.42.73 18.91 18.91 0 0 0 5.67-.13c2.73-.49 5.55-1.59 8.21-.9 1.38.36 2.65 1.18 4.1 1.09a3.25 3.25 0 0 1 1.7 0c1 .48 0 1.77.66 2.52s2 .43 2.9 0 2.26-.72 3-.09a5.39 5.39 0 0 1 .39.47c2.74 3.13 7.32-3.18 9.5-3.56a2.7 2.7 0 0 1 0 .28c.32 1.71 1.38 2.09 3.29 1.35 1.63-.65 2.55-.44 3.32.78a11.55 11.55 0 0 0 1.43 1.72 6.87 6.87 0 0 0-.7.91l5.92.76a14 14 0 0 0 2.38-1c.46.56.78.67 1.5.22 1.16-.81 3.07-1 3.42-2.49a.31.31 0 0 1 .22-.18c1-.4 1.75-1.07 2.75-1.44a3.34 3.34 0 0 1 2.14 0c.77.2 1.37.76 2.3.62a.43.43 0 0 1 .48.42c.12.88.67 1.48 2 1.66-.61.6-.82 1.11-.24 1.66.13.15 0 .4.09.59.2 1.16.47 1.29 1.92.94.13 0 .31 0 .45-.07.51-.07.73-.31.53-.71-.37-.7 0-1.05.82-1.33a2.08 2.08 0 0 0 1.58-1.49c.05-.48.38-.72.86-.94 1.2-.54 2.14-1.38 3.38-1.92.4-.16.66-.62 1.2-.42s.38.74.43 1.14c0 .17-.2.38-.25.58-.39 1.34-1.12 2.62-.69 4.06.16.48-.16 1.28.71 1.31 1.05.07.89-.79 1-1.28a9.29 9.29 0 0 1 2.81-5.41.91.91 0 0 0 .35-.92c-.35-1.27.88-2.13 1.25-3.25.12-.4 1-.78 1.41-1.26a.47.47 0 0 1 .56-.08 18 18 0 0 1 2.12.76 2.89 2.89 0 0 1 1.25 1.92c.09.25.16.53.47.66-.3.24-.63.56 0 .88.41.18.11.43-.11.59a14.06 14.06 0 0 1-3.79 2 4.22 4.22 0 0 0-2.27 1.83 19.71 19.71 0 0 1 3.57-1 8.17 8.17 0 0 0 4.17-2 2.63 2.63 0 0 1 2.27-.68 2 2 0 0 0 1.52-.38 4.28 4.28 0 0 1 1.73-.83 2.11 2.11 0 0 1 .19.23c.43.66.82 1.56 1.88 1.88a36.1 36.1 0 0 1 4.58 1 1.82 1.82 0 0 0 .77-.1 18.8 18.8 0 0 1 2.11-.3 16.73 16.73 0 0 1 4.73.16 3.25 3.25 0 0 1 1.05.24c.21.14.14.39 0 1-.28 1.11.39 1.68 1.89 1.54a2.25 2.25 0 0 1 1.83.47c.52.45.85.38 1-.29.42-1.9 2.24-2.46 4.29-2.74a4.27 4.27 0 0 1 .59 0c1 0 1.33.47 1.05 1.41v.11c-.47 1.55.24 2.32 2.19 2.36a3.23 3.23 0 0 0 1.21-.32 2.6 2.6 0 0 1 2.6.12 3.45 3.45 0 0 0 2.79.53 1.9 1.9 0 0 1 .92 0 15.72 15.72 0 0 0 2.9.51c.32-.06.68-.09 1-.13a.34.34 0 0 0 .17-.32c-.47-1.55 1-2.75 1.27-4.13.08-.42.63-.63 1.15-.8a9.79 9.79 0 0 0 3.72-2.29 4.55 4.55 0 0 0 1.29-3.06 1.36 1.36 0 0 1 .25-.72 3.51 3.51 0 0 0 .72-3.21 29.38 29.38 0 0 0-.6-3.08v-.14a4.74 4.74 0 0 0 1-1h.08c0 .05.06.1.2.12a.4.4 0 0 0 .28-.18.2.2 0 0 0 0-.22l1.71-.93a12.91 12.91 0 0 1 3.37-1.6c.6-.4 1.24-.8 1.88-1.22 1 .1 2 .42 3.13-.12a27 27 0 0 0 4.27-2.24 2 2 0 0 1 .39.29 1.22 1.22 0 0 0 1.23.47c-.19.18-.47.3-.29.54s.56.14.84 0a20.35 20.35 0 0 0 2.93-1.42c.82-.5 2.09-.66 2.39-1.73 0-.07.1-.14.21-.2h.07a2.8 2.8 0 0 0 3.24-1.63 4.72 4.72 0 0 1 .41-.68 10.13 10.13 0 0 0 1.09-.7 12.34 12.34 0 0 1 2.19-1.14 1.75 1.75 0 0 1 1.25-.06 1.94 1.94 0 0 1-.18 1c-.11.38-.19.76.18 1.06a5.77 5.77 0 0 1-.53 1.16c-.84 1.26-2.34 2.24-3 3.59a1.18 1.18 0 0 0-1.18.46 10.57 10.57 0 0 1-2.64 1.86c-1.65.89-2.78 2.24-4.28 3.26a1 1 0 0 0-.11 1.69 1.85 1.85 0 0 0 2.15 0 5.93 5.93 0 0 0 1.24-.78 21 21 0 0 1 3.42-2.17 1.56 1.56 0 0 1 1.56-.19c-2 1.07-3.48 2.6-5.53 3.22a6.74 6.74 0 0 0-3.54 2.57.7.7 0 0 0-.13.93c.28.36.73.26 1.15.2s1-.24 1.47-.37c.77-.21 1.48-.35 1.48.58 0 .38.21.67.74.71s.61-.33.88-.54a13.18 13.18 0 0 0 4-2.48 2.28 2.28 0 0 0 1.5-1.08 6.31 6.31 0 0 1 2.22-1.5 2.43 2.43 0 0 0 .35-.2c.72-.38 1-1.08 1.64-1.52 0-1.15 1.35-1.83 1.7-2.83 0-.08.23-.18.38-.16 1.41-.18 2.37-1 3.62-1.45a1.2 1.2 0 0 0 .87-1.12 6.09 6.09 0 0 1 2.32-4.89l.84-.28c2 .06 4 .11 6 0a1.73 1.73 0 0 0 1-.39 2 2 0 0 1 2.12-.71A1.85 1.85 0 0 0 262.8 9l.35.05a4.1 4.1 0 0 1 .1.48.91.91 0 0 0 .84.69h.12a.33.33 0 0 0 .24.18c1.21.19 2.12 1 3.43.92l-.1.1a.27.27 0 0 0 0 .44.47.47 0 0 0 .54.12 2 2 0 0 0 .58-.22c.14-.07.3-.13.45-.19.76.75 1.57.5 2.37 0a2.2 2.2 0 0 1 2.28-.17 1.17 1.17 0 0 0 1.2-.1 2.25 2.25 0 0 1 2.54-.11 2.18 2.18 0 0 0 2-.09 2.41 2.41 0 0 0 1.28-1.38 10.46 10.46 0 0 1 .59-1.72c.58-1 .56-1.16 2.08-1.12.13.2-.05.3-.17.42-1 .8-.87 1.21.43 1.37a4.58 4.58 0 0 1 2.19.86.9.9 0 0 0 1.32-.12 2.37 2.37 0 0 0 .74-1.35c.08-.41.43-.6.95-.35a1.87 1.87 0 0 0 2.1-.26A18 18 0 0 0 293.57 6c.64-.52.85-.5 1.51.09a3.3 3.3 0 0 0 3.43.55 1.08 1.08 0 0 1 .57-.17c2 0 3.43-.91 4.86-1.85.53-.32.94-.78 1.73-.44.64.24 1.45 0 1.91.52.58.7 1.12.56 1.78.12a2.56 2.56 0 0 1 1.35-.56c.18.62.28 1.42 1.53 1.36a11 11 0 0 1 3.23.34 9.42 9.42 0 0 0 1.69.1 22.15 22.15 0 0 1 4.32.26c1.2.22 2.14 1.91 1.4 2.49-1 .72-1 1.38-.18 2.14a6.32 6.32 0 0 1 .36.54c.72 1.46.72 1.46 2.58 1a4.72 4.72 0 0 0 .71-.2c.61-.25 1.07-.66.76-1.2-.49-.86.51-1.66.1-2.5 0-.09.11-.26.23-.32.61-.26.74-.63.43-1.12-.1-.19.08-.39.31-.51a21.61 21.61 0 0 1 3.33-1.38 1 1 0 0 1 1.18.3c.86.79 1.19 2 2.78 2.1 0 .61-.59.83-.92 1.19-.52.5-.33.8.48.92 1.15.13 1.74-.42 1.35-1.33S336.45 7 337.65 7a1.8 1.8 0 0 1 1.15.42 1.9 1.9 0 0 0 1 .47c.79.1 1 .39.69.9a1.8 1.8 0 0 1-1.58.89.87.87 0 0 0-1 .8c-.21.68.13 1.12.76 1.48s1.27.82 2.14.42c.38-.16.74-.36 1.1-.5a3.18 3.18 0 0 1 3.07-.24 1.85 1.85 0 0 0 1.24.12 2.15 2.15 0 0 1 1.57.36c.84.38 1.73 1 2.83.32a2.91 2.91 0 0 1 1.45.4 2.52 2.52 0 0 0 2 .32c.35-.08.79-.1 1.22-.18 1.83-.2 3.36 1 3.05 2.39-.07.65-.1 1.24.64 1.66a.8.8 0 0 1-1.22.48c-.3-.12-.49-.47-.79-.22a.56.56 0 0 0-.15 1c1 1.44 1.27 1.54 2.67 1.1a8.21 8.21 0 0 0 2 1c.36 0 .69-.08 1-.12l1.25.16a2 2 0 0 0 1.25.44 2.4 2.4 0 0 0 1.54-.72c-.59-.11-1.19.12-1.72-.14-.14-.08-.21-.22 0-.3a1.6 1.6 0 0 1 .43-.1c.47.08.84-.22 1.26-.32 0 0 0 .08.06.12a4.38 4.38 0 0 0 5.22.16 3.22 3.22 0 0 1 2-.38 2.16 2.16 0 0 0 2.06-.58 1 1 0 0 1 1.27-.16c1.88.92 4 .6 6 .6 2.45 0 3 .18 3.46 2a4.77 4.77 0 0 0 3.14 3.43c.16.56.47.73.94 1.23.63.67.8 1.48 1.42 2l.94.76c1 .78 2.74 2.46 4 1.43 1.12-.91.25-2.09-.45-3-.11-.15-.5-.47-.53-.66s.09-.25.22-.38a2.32 2.32 0 0 0 1.5.06 12.38 12.38 0 0 1 2.56-.6.94.94 0 0 0 .69-.32 3.73 3.73 0 0 1 1.71-1.05 5.38 5.38 0 0 1 .84 1.37c.28.73.22 1.13.84 1.76.32.33.77.54 1 .95a8.63 8.63 0 0 1 .84 2c.18.71-.2 1.7.29 2.3s2 .43 2.9.05 2.26-.73 2.95-.1a5.84 5.84 0 0 1 .39.48c2.74 3.12 7.32-3.19 9.5-3.57a2.54 2.54 0 0 1 0 .29c.32 1.7 1.38 2.08 3.29 1.34 1.63-.64 2.55-.44 3.32.78a11.55 11.55 0 0 0 1.43 1.72 7.6 7.6 0 0 0-.7.91l5.91.76A13.76 13.76 0 0 0 438 34c.46.56.78.68 1.5.22 1.16-.81 3.07-1 3.42-2.49a.31.31 0 0 1 .22-.18c1-.4 1.75-1.06 2.75-1.44 3.35-1.27 4.25 2.33 6.62 3.19 1.12.41 1.68-.19 2.74-.5 2-.61 2.4-.64 3.39-2.21.53-.88-.12-1.76 1.39-2.32 1.25-.47 2.21.36 3.11 1a29.24 29.24 0 0 0 3.59 2.41c1.32.74 2 1.94 3.85 1.53 1.16-.26 1.9-1.35 3.16-1.57.56-2-3-2.19-3.88-3.76-.43-.75-1-5.18 1.05-4.18a17.84 17.84 0 0 1 2.11.76 2.91 2.91 0 0 1 1.26 1.91c1.34 4 5 1.77 7.61 1.09.06.08.14.15.19.23.43.66.82 1.56 1.88 1.88a37.33 37.33 0 0 1 4.57 1 1.84 1.84 0 0 0 .78-.1 18.28 18.28 0 0 1 6.84-.14c1.32.2 1.32.18 1.05 1.22s.39 1.68 1.89 1.55a2.29 2.29 0 0 1 1.83.46c.52.45.85.38 1-.29.42-1.89 2.24-2.46 4.29-2.74 1.49-.18 2 .3 1.61 1.49-.47 1.54.24 2.31 2.19 2.36a3.43 3.43 0 0 0 1.21-.32 2.6 2.6 0 0 1 2.6.11 3.41 3.41 0 0 0 2.79.53 2 2 0 0 1 .92 0 15.77 15.77 0 0 0 2.89.51l1-.13a.34.34 0 0 0 .17-.32c-.47-1.54 1-2.75 1.27-4.13.08-.42.63-.63 1.15-.8 2.27-.89 4.05-2.06 4.72-3.86a4.7 4.7 0 0 0 .29-1.49c.23-1.09.88-2.31 2-1.36.73.59.39 1.87 1.66 1.55.68-.17 1.33-.79 2.08-.92a7.13 7.13 0 0 1 3.81.71 2.42 2.42 0 0 1 1.11 1c.48.84.43 1.87 1 2.84a2.8 2.8 0 0 0 1.93 1 3.77 3.77 0 0 0 3.15-1.31 1.48 1.48 0 0 0 .26-.59c.26-1.46-1.66-1.68-2.15-2.69a4.89 4.89 0 0 1 0-2.76c.45-1.3 2.43-1.67 2.9-2.82-1.47-.47.09-1.43.79-1.83a2.63 2.63 0 0 1 2-.38c.92.29 1 .91 2.11.46a34.23 34.23 0 0 0 4.71-2.66 2.31 2.31 0 0 1 2.93 1c.7 1.34.09 2.55 1.47 3.69a4.85 4.85 0 0 0 4 1c1.31-.35 2.17-1.56 3.61-1.52a8.25 8.25 0 0 1 2.09.63c2.31.72 3.61-.19 5.72-1.3 1.16-.61 1.13-.74 2.62-.34s1.43.61 1.8-.72c.58-2.07.76-4.06-1.52-4.88a6.62 6.62 0 0 0-4.07.09c-.61.15-1.33.58-2.08.25a9.36 9.36 0 0 1-2.73-2.63c-1.28-2.15.11-4.33 2.19-5.37s5.23-.22 7.44-.31a1.72 1.72 0 0 0 1-.38 2 2 0 0 1 2.12-.72 1.85 1.85 0 0 0 1.36-.2l.35.06a4.1 4.1 0 0 1 .1.48.9.9 0 0 0 .84.68h.12a.33.33 0 0 0 .24.18c1.21.19 2.12 1 3.43.92l-.1.1a.27.27 0 0 0 0 .44.47.47 0 0 0 .54.12 2.07 2.07 0 0 0 .58-.22c.14-.07.3-.13.45-.19.75.75 1.57.5 2.37 0a2.2 2.2 0 0 1 2.32-.18 1.17 1.17 0 0 0 1.2-.1 2.23 2.23 0 0 1 2.54-.1 2.21 2.21 0 0 0 2-.1 2.44 2.44 0 0 0 1.28-1.38 10.75 10.75 0 0 1 .51-1.73c.58-1 .56-1.16 2.08-1.12.13.2 0 .31-.17.42-1 .8-.87 1.21.43 1.37a4.68 4.68 0 0 1 2.19.86.9.9 0 0 0 1.32-.12 2.37 2.37 0 0 0 .74-1.35c.08-.41.43-.6 1-.35a1.87 1.87 0 0 0 2.1-.26A19 19 0 0 0 615.17.1c1-.87 5.57 4.06 7.29 4.59 1 .29 1.91-.46 2.87-.21s.9 1.1 1.59 1.54c1.35.89 3.27.38 4.78.5S635 6.83 636 8c1.35 1.56 1.56 2.18 3.51 3.12 1.12.54.9.27 1.34 1.13.59 1.16.36 2.2 1.68 3s5.89 1.5 7.28.17c.81-.76.54-2.22 1.25-3.05s2-1.09 2.74-2.28c1.24-2 .52-2.63 2.77-2.46a13.35 13.35 0 0 0 6.72-1.22c.73-.36 1.09-.86 2-.92s1.67.64 2.64.45a2.22 2.22 0 0 1 1.58.36c.83.38 1.73 1 2.82.32a3 3 0 0 1 1.45.4 2.54 2.54 0 0 0 2 .32c.35-.08.79-.1 1.22-.18 1.83-.2 3.36 1 3.05 2.39-.07.66-.1 1.24.64 1.66a.8.8 0 0 1-1.22.48c-.3-.12-.49-.46-.79-.22a.56.56 0 0 0-.15 1c1 1.44 1.27 1.54 2.67 1.11a13.79 13.79 0 0 0 1.3.72 5.48 5.48 0 0 0 .71.27c.36 0 .69-.08 1-.12l1.08.14h.17a2 2 0 0 0 2.79-.28c-.59-.11-1.19.12-1.72-.14-.14-.07-.21-.22 0-.29a1.09 1.09 0 0 1 .43-.1c.47.07.84-.22 1.26-.33 0 0 0 .08.06.12a5.94 5.94 0 0 0 2.06.88 3.92 3.92 0 0 0 2.51-.34 6.41 6.41 0 0 0 .65-.38 3.22 3.22 0 0 1 2-.38 2.16 2.16 0 0 0 2.06-.58 1 1 0 0 1 1.27-.16 10.4 10.4 0 0 0 5 .62h1c2.45 0 3 .19 3.46 2a5 5 0 0 0 4.38 3.77c1.5.26 3 .63 4.41.89.81.11 1.53.6 2.41.29a12.38 12.38 0 0 1 2.56-.6.92.92 0 0 0 .76-.42 3.63 3.63 0 0 1 1.71-1c.65-.2 1.27-.44 1.06-1.16s.41-.68 1-.64a1.33 1.33 0 0 1 1 .5.85.85 0 0 0 1.37.06 1 1 0 0 1 1.38-.14c.64.48 1.14.2 1.83-.06 1.45-.56 2.8-1.38 4.67-1.1a1.48 1.48 0 0 0 1.85-1 13.7 13.7 0 0 1 1-1.66 1.39 1.39 0 0 1 1.66-.44c1.88.59 4 .62 5.86 1.34a6.18 6.18 0 0 0 1.81.31c1.27.06 2-.48 2.14-1.41.13-1.1.48-1.4 1.85-1 .74.18.92 0 1.17-.4a1.74 1.74 0 0 0-.05-.27Z" class="cls-1"/><path d="M707.31 16.26c-.83-.59-2.26-.58-2.81-1.43-.35-.54 0-1.14-.66-1.57a.65.65 0 0 0-.16-.09 10.4 10.4 0 0 1-5-.62 1 1 0 0 0-1.27.16 2.16 2.16 0 0 1-2.06.58 3.22 3.22 0 0 0-2 .38 6.41 6.41 0 0 1-.65.38 3 3 0 0 1 1.74.5c.61.46.57 1.34 1.14 1.66s1.12-.15 1.78 0c1.07.22.8 1 1.37 1.55 1.26 1.26 3.87.21 5.46 1 1.16.53 3.5 2.1 4.39.48.69-1.24-.4-2.35-1.27-2.98Zm-19.21-2.87c-.42.11-.79.4-1.26.33a1.09 1.09 0 0 0-.43.1c-.18.07-.11.22 0 .29.53.26 1.13 0 1.72.14a2 2 0 0 1-2.79.28h-.17a.7.7 0 0 0 .16.14 3.65 3.65 0 0 0 3.5.16c.38-.13.85-.29 1.36-.42a5.94 5.94 0 0 1-2.06-.88s-.01-.1-.03-.14Zm-9.66-1a.56.56 0 0 1 .15-1c.3-.24.49.1.79.22a.8.8 0 0 0 1.22-.48c-.74-.42-.71-1-.64-1.66.31-1.43-1.22-2.59-3.05-2.39-.43.08-.87.1-1.22.18a2.54 2.54 0 0 1-2-.32 3 3 0 0 0-1.45-.4c-1.09.7-2 .06-2.82-.32a2.22 2.22 0 0 0-1.58-.36c-1 .19-1.69-.51-2.64-.45s-1.24.56-2 .92a13.35 13.35 0 0 1-6.72 1.22c-2.25-.17-1.53.46-2.77 2.46-.74 1.19-1.92 1.33-2.74 2.28s-.44 2.29-1.25 3.05c-1.39 1.33-5.86.67-7.28-.17s-1.09-1.84-1.68-3c-.44-.86-.22-.59-1.34-1.13-2-.94-2.16-1.56-3.51-3.12-1-1.13-2.73-1.33-4.27-1.44s-3.43.39-4.78-.5c-.69-.44-.76-1.33-1.59-1.54s-1.89.5-2.87.21c-1.72-.53-6.28-5.46-7.29-4.59a19 19 0 0 1-2.31 1.48 1.87 1.87 0 0 1-2.1.26c-.52-.25-.87-.06-1 .35a2.37 2.37 0 0 1-.74 1.35.9.9 0 0 1-1.32.12 4.68 4.68 0 0 0-2.19-.86c-1.3-.16-1.43-.57-.43-1.37.12-.11.3-.22.17-.42-1.52 0-1.5.09-2.08 1.12a10.75 10.75 0 0 0-.51 1.73 2.44 2.44 0 0 1-1.28 1.38 2.21 2.21 0 0 1-2 .1 2.23 2.23 0 0 0-2.54.1 1.17 1.17 0 0 1-1.2.1 2.2 2.2 0 0 0-2.32.18c-.8.49-1.62.74-2.37 0-.15.06-.31.12-.45.19a2.07 2.07 0 0 1-.58.22.47.47 0 0 1-.54-.12.27.27 0 0 1 0-.44l.1-.1c-1.31.13-2.22-.73-3.43-.92a.33.33 0 0 1-.24-.18h-.12a.9.9 0 0 1-.84-.68 4.1 4.1 0 0 0-.1-.48l-.35-.06a1.85 1.85 0 0 1-1.36.2 2 2 0 0 0-2.12.72 1.72 1.72 0 0 1-1 .38c-2.21.09-5.42-.7-7.44.31S569 8 570.27 10.12a9.36 9.36 0 0 0 2.73 2.63c.75.33 1.47-.1 2.08-.25a6.62 6.62 0 0 1 4.07-.09c2.28.82 2.1 2.81 1.52 4.88-.37 1.33-.21 1.13-1.8.72s-1.46-.27-2.62.34c-2.11 1.11-3.41 2-5.72 1.3a8.25 8.25 0 0 0-2.09-.63c-1.44 0-2.3 1.17-3.61 1.52a4.85 4.85 0 0 1-4-1c-1.38-1.14-.77-2.35-1.47-3.69a2.31 2.31 0 0 0-2.93-1 34.23 34.23 0 0 1-4.71 2.66c-1.07.45-1.19-.17-2.11-.46a2.63 2.63 0 0 0-2 .38c-.7.4-2.26 1.36-.79 1.83-.47 1.15-2.45 1.52-2.9 2.82a4.89 4.89 0 0 0 0 2.76c.49 1 2.41 1.23 2.15 2.69a1.48 1.48 0 0 1-.26.59c.76.23 1.63-.08 2.37.23s1.1.87 2 .82c1.87-.1 3.23-2.52 4.73-3.47.33-.21.66-.36 1-.53a2.38 2.38 0 0 0 .94-.9 2.69 2.69 0 0 0 .27-.88 1.54 1.54 0 0 1 .64-1 2.65 2.65 0 0 1 2.09-.75c.83.14 1.29.91 2.18.85.8-.77 1.26-.27 1.92.11a6.79 6.79 0 0 1 2.1 1.84c-.86.18-4.45 1-4.45 2.11 1.32.65 3.6.65 5.08.82.5 1.44 2.42 4.07 4.11 2.94 1-.69 1.78-2.16 2.69-3.05s.9-.43 2-.68c.84-.2 1.1-.91 2-1.07 1.64-.32 2.87.32 3 1.86.14 2.1.4 2.48 1.87 4 1 1.07.73 1.76.39 3.22s.06 4.13 1.66 4.8a3.1 3.1 0 0 0 2 0c.14 0 .35-.26.56-.15-.41 1.29-.17 1.23.8 1.84.65.42 1.06 1.13 1.94 1.28s1.09-.39 1.69-.52 1 .11 1.55-.18.37-.67.73-.84c1.76-.82 3.14 2.68 4.92 1.53.83-.54 1-1.68 1.8-2.24s2.24-.68 3.23-1.21a10 10 0 0 1 4.15-1c1.68-.19 2.68-.2 3-2.15a2.47 2.47 0 0 1 .77-1.65c.21-.24.7-.32.89-.58s.09-.83.27-1.13c.57-1 1.06-.63 2-1s1.61-1.09 2.55-1.34a12.65 12.65 0 0 1 4.33-.13c1.21.15 1.61-.35 2.79-.66 1.45-.41 3 .34 4.46.08 2.42-.43 3.28-1.32 3.54-3.63 1.52-.36 5.69 1.47 5.9-1 .07-.77-.37-1.18.09-2s1-.87 2.13-.84c3 .07 6 0 9 .23 1.93.14 4 .62 5.32-.92 1.38.91 2.67.88 4.27 1.06 1.82.21 1.8-.41 3-1.38 1.74-1.44 5.24.79 7.52.07-.08-1.08-.24-2.22-.3-3.32.66-.14 1.39-.08 2-.27 1-.28.87-.66 1.43-1.25.91-1 1.74-.55 2.85-1 .67-.29.73-.81 1.62-.72 1.06.13 2.09.95 3.24 1.07 1.68.17 1.39-.25 2-1.15a13.79 13.79 0 0 1-1.3-.72c-1.43.36-1.66.26-2.7-1.18Zm-139.81 12.1a7.13 7.13 0 0 0-3.81-.71c-.75.13-1.4.75-2.08.92-1.27.32-.93-1-1.66-1.55-1.16-.95-1.81.27-2 1.36a4.7 4.7 0 0 1-.29 1.49 5.33 5.33 0 0 0 3 .88 26.58 26.58 0 0 0 5.29-.95 18.37 18.37 0 0 1 2.75-.42 2.42 2.42 0 0 0-1.2-1.02ZM365 20.83a2 2 0 0 1-1.25-.44l-1.25-.16c-.31 0-.64.1-1 .12a8.21 8.21 0 0 1-2-1c-1.4.44-1.63.34-2.67-1.1a.56.56 0 0 1 .15-1c.3-.25.49.1.79.22A.8.8 0 0 0 359 17c-.74-.42-.71-1-.64-1.66.31-1.43-1.22-2.59-3.05-2.39-.43.08-.87.1-1.22.18a2.52 2.52 0 0 1-2-.32 2.91 2.91 0 0 0-1.45-.4c-1.1.7-2 .06-2.83-.32a2.15 2.15 0 0 0-1.57-.36 1.85 1.85 0 0 1-1.24-.12 3.18 3.18 0 0 0-3.07.24c-.36.14-.72.34-1.1.5-.87.4-1.47 0-2.14-.42s-1-.8-.76-1.48a.87.87 0 0 1 1-.8 1.8 1.8 0 0 0 1.58-.89c.31-.51.1-.8-.69-.9a1.9 1.9 0 0 1-1-.47 1.8 1.8 0 0 0-1.17-.39c-1.2 0-1.65.48-1.27 1.35s-.2 1.46-1.35 1.33c-.81-.12-1-.42-.48-.92.33-.36.88-.58.92-1.19-1.59-.15-1.92-1.31-2.78-2.1a1 1 0 0 0-1.18-.3 21.61 21.61 0 0 0-3.33 1.38c-.23.12-.41.32-.31.51.31.49.18.86-.43 1.12-.12.06-.25.23-.23.32.41.84-.59 1.64-.1 2.5.31.54-.15.95-.76 1.2a4.72 4.72 0 0 1-.71.2c-1.86.5-1.86.5-2.58-1a6.32 6.32 0 0 0-.36-.54c-.78-.76-.84-1.42.18-2.14.74-.58-.2-2.27-1.4-2.49a22.15 22.15 0 0 0-4.32-.23 9.42 9.42 0 0 1-1.69-.1 11 11 0 0 0-3.23-.34c-1.25.06-1.35-.74-1.53-1.36a2.56 2.56 0 0 0-1.35.56c-.66.44-1.2.58-1.78-.12-.46-.5-1.27-.28-1.91-.52-.79-.34-1.2.12-1.73.44-1.43.94-2.83 1.9-4.86 1.85a1.08 1.08 0 0 0-.57.17 3.3 3.3 0 0 1-3.43-.58c-.66-.59-.87-.61-1.51-.09a18 18 0 0 1-2.32 1.49 1.87 1.87 0 0 1-2.1.26c-.52-.25-.87-.06-.95.35a2.37 2.37 0 0 1-.74 1.35.9.9 0 0 1-1.32.12 4.58 4.58 0 0 0-2.14-.82c-1.3-.16-1.43-.57-.43-1.37.12-.12.3-.22.17-.42-1.52 0-1.5.08-2.08 1.12a10.46 10.46 0 0 0-.51 1.73 2.41 2.41 0 0 1-1.28 1.38 2.18 2.18 0 0 1-2 .09 2.25 2.25 0 0 0-2.54.11 1.17 1.17 0 0 1-1.2.1 2.2 2.2 0 0 0-2.32.18c-.8.49-1.61.74-2.37 0-.15.06-.31.12-.45.19a2 2 0 0 1-.58.22.47.47 0 0 1-.54-.12.27.27 0 0 1 0-.44l.1-.1c-1.31.13-2.22-.73-3.43-.92a.33.33 0 0 1-.24-.18h-.12a.91.91 0 0 1-.84-.69 4.1 4.1 0 0 0-.1-.48L262.8 9a1.85 1.85 0 0 1-1.36.2 2 2 0 0 0-2.12.71 1.73 1.73 0 0 1-1 .39c-2 .08-4 0-6 0l-.84.28a6.09 6.09 0 0 0-2.32 4.89 1.2 1.2 0 0 1-.87 1.12c-1.25.41-2.21 1.27-3.62 1.45-.15 0-.38.08-.38.16-.35 1-1.67 1.68-1.7 2.83-.64.44-.92 1.14-1.64 1.52a2.43 2.43 0 0 1-.35.2 6.31 6.31 0 0 0-2.22 1.5 2.28 2.28 0 0 1-1.5 1.08 13.18 13.18 0 0 1-4 2.48c-.27.21-.45.5-.88.54s-.74-.33-.74-.71c0-.93-.71-.79-1.48-.58-.48.13-1 .27-1.47.37s-.87.16-1.15-.2a.7.7 0 0 1 .13-.93 6.74 6.74 0 0 1 3.54-2.57c2.05-.62 3.54-2.15 5.53-3.22a1.56 1.56 0 0 0-1.56.19 21 21 0 0 0-3.42 2.17 5.93 5.93 0 0 1-1.24.78 1.85 1.85 0 0 1-2.15 0 1 1 0 0 1 .11-1.69c1.5-1 2.63-2.37 4.28-3.26a10.57 10.57 0 0 0 2.62-1.89 1.18 1.18 0 0 1 1.18-.46c.62-1.35 2.12-2.33 3-3.59a5.77 5.77 0 0 0 .53-1.16c-.37-.3-.29-.68-.18-1.06a1.94 1.94 0 0 0 .18-1 1.75 1.75 0 0 0-1.25.06 12.34 12.34 0 0 0-2.19 1.14 10.13 10.13 0 0 1-1.09.7 4.72 4.72 0 0 0-.41.68 2.8 2.8 0 0 1-3.24 1.63h-.07c-.11.06-.2.13-.21.2-.3 1.07-1.57 1.23-2.39 1.73a20.35 20.35 0 0 1-2.93 1.42c-.28.12-.63.24-.84 0s.1-.36.29-.54a1.22 1.22 0 0 1-1.23-.47 2 2 0 0 0-.39-.29 27 27 0 0 1-4.31 2.2c-1.09.54-2.09.22-3.13.12-.64.42-1.28.82-1.88 1.22a12.91 12.91 0 0 0-3.37 1.6l-1.71.93a.2.2 0 0 1 0 .22.4.4 0 0 1-.28.18c-.14 0-.19-.07-.2-.12h-.08a4.74 4.74 0 0 1-1 1v.14a29.38 29.38 0 0 1 .6 3.08 3.51 3.51 0 0 1-.72 3.21 1.36 1.36 0 0 0-.25.72 4.55 4.55 0 0 1-1.29 3.06 3.63 3.63 0 0 1 .89 1c-.86.18-4.45 1-4.46 2.1 1.33.65 3.61.66 5.08.84.5 1.43 2.42 4.06 4.11 2.93 1-.69 1.79-2.16 2.7-3.05s.9-.42 2-.69c.84-.19 1.1-.9 2-1.06 1.64-.32 2.86.31 3 1.87.15 2.09.41 2.47 1.87 4 1 1.07.75 1.76.4 3.22s.07 4.13 1.66 4.79a3 3 0 0 0 2 0c.14 0 .35-.26.56-.15-.41 1.29-.17 1.22.79 1.84.66.41 1.07 1.13 2 1.28s1.08-.39 1.68-.52 1 .12 1.55-.19c.42-.22.37-.66.73-.84 1.75-.82 3.13 2.69 4.92 1.54.83-.54 1-1.69 1.8-2.24s2.24-.67 3.24-1.21a10.08 10.08 0 0 1 4.13-1c1.69-.18 2.68-.19 3-2.14a2.47 2.47 0 0 1 .77-1.65c.21-.25.7-.32.88-.58s.1-.84.27-1.14c.58-1 1.07-.62 2-1s1.62-1.09 2.56-1.33a12.4 12.4 0 0 1 4.33-.13c1.2.15 1.61-.35 2.79-.67 1.45-.39 3 .35 4.46.09 2.42-.42 3.27-1.33 3.54-3.63 1.52-.36 5.7 1.47 5.9-1 .07-.78-.37-1.18.08-2s1-.88 2.13-.85c3 .07 6 0 9 .23 1.93.14 4 .62 5.32-.92 1.38.9 2.66.88 4.27 1.06 1.82.22 1.79-.41 3-1.38 1.73-1.44 5.23.79 7.52.07-.09-1.09-.24-2.22-.3-3.32.65-.14 1.39-.08 2-.27 1-.28.87-.66 1.43-1.24.91-1 1.74-.57 2.85-1 .67-.28.73-.82 1.61-.71 1.07.12 2.1.94 3.24 1.06 1.94.2 1.27-.39 2.27-1.57s1.71.16 2.65.85a3.65 3.65 0 0 0 3.5.16c1.45-.52 4.23-1.3 5.6-.27.62.48.58 1.36 1.14 1.67s1.13-.15 1.79 0c1.06.22.79 1 1.37 1.56 1.26 1.27 3.88.21 5.46.95 1.16.54 3.49 2.1 4.39.49.66-1.19-.43-2.31-1.3-2.92s-2.26-.59-2.81-1.44c-.35-.54 0-1.14-.66-1.57s-1.24.06-1.71-.56c-.22-.29-.08-1.06-.2-1.41s-.55-.76-.63-1.08c-.39-1.6.77-1.38 2-.93.84.3 1.19 1.18 2 1.3s1.57-.84 2.43-.82a13 13 0 0 1 2 .59 5.51 5.51 0 0 1 1.55.29c.46.23.69 1 1.23 1.22a10.74 10.74 0 0 0 2.64-.08c.68-.48 1.88.28 2.64.41a7.32 7.32 0 0 1 3.05.81 5.36 5.36 0 0 0 2.78 1.24c.72 0 2.13-.64 2.22-1.52.08-.62-1.02-1.27-1.84-1.91ZM185.2 36.4l.08.08c.46.46.56 1 1 1.33.25-.94-.08-1.4-1.08-1.41Zm-15.37-.32a5.25 5.25 0 0 0 2.82.81 14 14 0 0 0 3-.41 3.25 3.25 0 0 0-1.05-.24 16.73 16.73 0 0 0-4.77-.16Z" class="cls-2"/></g></g></svg>